# xmcd CD database file
#
# Track frame offsets:
#	150
#	26268
#	44081
#	57186
#	70545
#	82481
#	94736
#	113781
#	123331
#	140287
#	155714
#	167964
#	193526
#	206717
#	219614
#	233162
#	255553
#	265462
#	289295
#	318496
#
# Disc length: 4593 seconds
#
# Revision: 0
# Processed by: cddbd v1.5.2PL0 Copyright (c) Steve Scherf et al.
# Submitted via: CDex 1.70beta2
#
DISCID=3311ef14
DTITLE=Sueddeutsche Zeitung - Jazz - Voices
DYEAR=2011
DGENRE=Jazz
TTITLE0=Cassandra Wilson: A Little Warm Death
TTITLE1=Al Jarreau: Agua de beber
TTITLE2=Carmen McRae: Invitation 
TTITLE3=Lambert, Hendricks and Ross with the Ike Isaacs Trio: Cottontail
TTITLE4=Dinah Washington: New Blowtop Blues
TTITLE5=Sarah Vaughan: They Can't Take That Away From Me
TTITLE6=Ella Fitzgerald and Louis Armstrong: Let's Call The Whole Thing Off
TTITLE7=Peter Fessler: One Note Samba "Waltz" 
TTITLE8=Madeleine Peyroux: I’m Gonna Sit Right Down And Write Myself A Letter
TTITLE9=Blossom Dearie: They Say It's Spring
TTITLE10=Della Reese: My Heart Belongs To Daddy 
TTITLE11=Oscar Brown Jr.: Brother Where Are You? 
TTITLE12=Kurt Elling: The Best Things Happen While You're Dancing
TTITLE13=Chet Baker: It Could Happen To You 
TTITLE14=Mark Murphy: Love Is Here To Stay 
TTITLE15=Melody Gardot: Who Will Comfort Me
TTITLE16=Serge Gainsbourg: Du Jazz dans le Ravin
TTITLE17=Youn Sun Nah: Frevo 
TTITLE18=Sidsel Endersen and Bugge Wesseltoft: You Might Say
TTITLE19=Susanna and The Magical Orchestra: Recall
EXTD=YEAR: 2011
EXTT0=
EXTT1=
EXTT2=
EXTT3=
EXTT4=
EXTT5=
EXTT6=
EXTT7=
EXTT8=
EXTT9=
EXTT10=
EXTT11=
EXTT12=
EXTT13=
EXTT14=
EXTT15=
EXTT16=
EXTT17=
EXTT18=
EXTT19=
PLAYORDER=
